<svg version="1.1" viewBox="0.0 0.0 853.6509186351706 253.6010498687664" fill="none" stroke="none" stroke-linecap="square" stroke-miterlimit="10" xmlns:xlink="http://www.w3.org/1999/xlink" xmlns="http://www.w3.org/2000/svg"><clipPath id="p.0"><path d="m0 0l853.65094 0l0 253.60104l-853.65094 0l0 -253.60104z" clip-rule="nonzero"/></clipPath><g clip-path="url(#p.0)"><path fill="#000000" fill-opacity="0.0" d="m0 0l853.65094 0l0 253.60104l-853.65094 0z" fill-rule="evenodd"/><path fill="#000000" fill-opacity="0.0" d="m0 0l854.1102 0l0 253.88977l-854.1102 0z" fill-rule="evenodd"/><path stroke="#80dfff" stroke-width="1.0" stroke-linejoin="round" stroke-linecap="butt" d="m0 0l854.1102 0l0 253.88977l-854.1102 0z" fill-rule="evenodd"/><path fill="#80dfff" d="m85.658325 110.32938l0.203125 24.828125l-0.796875 34.359375q0.203125 0.796875 0.59375 0.796875q0.40625 0 0.609375 -0.390625q3.96875 -5.5625 9.828125 -5.5625q5.859375 0 5.859375 2.375q0 7.5625 2.875 11.640625q2.890625 4.0625 8.140625 4.0625q5.265625 0 10.125 -7.15625q4.875 -7.15625 4.875 -19.0625q0 -3.984375 -1.578125 -9.546875q-3.1875 -11.125 -11.921875 -14.890625q-6.359375 -2.578125 -20.65625 -2.578125q-1.59375 0 -1.59375 -2.1875q0 -11.125 3.96875 -11.53125q5.359375 0 11.328125 -2.78125q11.921875 -5.5625 11.921875 -22.84375q0 -18.671875 -21.453125 -18.671875l-6.15625 0.390625q-3.578125 0.796875 -3.984375 2.984375l0 0.59375q-2.1875 7.953125 -2.1875 35.171875zm-29.203125 92.171875l0.40625 -2.1875q1.984375 -3.578125 3.375 -29.09375q1.390625 -25.53125 1.390625 -47.671875q0 -22.15625 -0.890625 -35.5625q-0.890625 -13.421875 -4.875 -19.375q-0.796875 -1.0 -0.796875 -2.390625q0 -1.390625 2.390625 -2.375q16.296875 -6.359375 44.296875 -6.359375q6.953125 0 15.09375 1.890625q8.15625 1.875 13.421875 4.65625q5.265625 2.78125 9.53125 8.546875q4.265625 5.765625 4.859375 13.703125q0 28.8125 -23.828125 33.1875q-1.203125 0.390625 -1.203125 0.890625q0 0.5 1.0 1.09375q12.3125 1.984375 20.65625 9.921875q4.171875 3.78125 7.546875 11.734375q3.390625 7.9375 3.390625 18.265625q0 13.3125 -7.75 25.234375q-6.359375 9.734375 -18.484375 13.90625q-6.75 2.375 -15.09375 2.375q-20.859375 0 -26.421875 -13.296875q-0.203125 -0.609375 -0.59375 -0.609375l-0.796875 0.796875q-4.171875 13.90625 -23.84375 14.5q-2.78125 0 -2.78125 -1.78125zm169.85931 -62.375l-0.40625 25.421875q0 26.421875 5.765625 31.78125q0.796875 0.796875 0.796875 1.796875q0 2.984375 -12.8125 2.984375q-12.8125 0 -13.609375 -7.5625q-0.203125 -1.78125 -0.203125 -7.34375l0.796875 -31.78125q0 -1.390625 -1.59375 -1.390625q-9.53125 0 -17.875 5.359375q-8.34375 5.359375 -8.34375 13.703125q0 4.375 2.375 7.359375q2.390625 2.96875 5.859375 2.96875q3.484375 0 5.765625 -1.390625q2.296875 -1.390625 2.6875 -1.578125q3.375 0.390625 3.375 7.046875q0 6.65625 -6.15625 10.734375q-6.15625 4.0625 -12.90625 4.0625q-6.75 0 -11.625 -2.390625q-4.859375 -2.375 -7.046875 -5.34375q-2.1875 -2.984375 -3.578125 -6.765625q-1.390625 -4.5625 -1.390625 -7.9375q0 -13.90625 8.734375 -22.25q8.75 -8.34375 22.453125 -11.921875q18.078125 -3.578125 18.875 -6.5625q0.59375 -2.1875 0.59375 -7.34375q0 -10.53125 -10.734375 -10.53125q-4.5625 0 -8.140625 2.890625q-3.578125 2.875 -3.578125 7.234375l1.203125 4.78125q-0.40625 3.375 -7.15625 3.96875l-2.1875 0.203125q-5.953125 0 -9.4375 -2.984375q-3.46875 -2.984375 -3.46875 -7.953125q0 -3.171875 2.078125 -7.046875q2.09375 -3.875 5.265625 -6.25q3.171875 -2.390625 9.828125 -4.28125q6.65625 -1.890625 12.8125 -1.890625q6.171875 0 9.546875 0.40625q3.375 0.390625 9.234375 1.890625q5.859375 1.484375 9.734375 5.65625q3.875 4.171875 4.171875 8.84375q0.296875 4.65625 0.296875 13.40625zm52.25049 -8.9375l-4.578125 1.1875q-3.578125 0 -3.578125 -6.65625q0 -6.65625 4.859375 -10.71875q4.875 -4.078125 12.421875 -4.078125q4.171875 0 8.9375 2.484375q4.78125 2.484375 7.953125 6.15625q3.1875 3.671875 5.65625 11.53125q2.484375 7.84375 2.484375 18.359375q0 24.234375 -13.015625 39.34375q-13.0 15.09375 -37.640625 15.09375q-7.1406097 0 -14.093735 -1.390625l-1.984375 -0.390625q-2.59375 -0.796875 -2.984375 -2.78125q-0.59375 -4.171875 -0.59375 -19.671875l1.1875 -64.359375q0 -14.90625 -0.796875 -22.859375l-0.390625 -2.78125q-0.40625 -5.5625 -2.296875 -9.53125q-1.875 -3.96875 -3.671875 -5.15625l-1.578125 -1.0q-1.390625 -0.796875 -1.390625 -1.78125q0 -2.984375 9.921875 -7.046875q9.9375 -4.078125 14.499985 -4.078125q4.578125 0 4.78125 2.375q1.390625 12.125 1.390625 34.5625l-1.0 47.6875q0 31.1875 1.78125 43.109375q0.203125 2.78125 6.265625 2.78125q6.0625 0 10.421875 -3.375q4.375 -3.390625 6.5625 -8.953125q3.96875 -10.125 3.96875 -22.4375q0 -5.765625 -1.59375 -12.515625q-2.78125 -13.109375 -11.90625 -13.109375zm109.45575 8.9375l-0.40625 25.421875q0 26.421875 5.765625 31.78125q0.796875 0.796875 0.796875 1.796875q0 2.984375 -12.8125 2.984375q-12.8125 0 -13.609375 -7.5625q-0.203125 -1.78125 -0.203125 -7.34375l0.796875 -31.78125q0 -1.390625 -1.59375 -1.390625q-9.53125 0 -17.875 5.359375q-8.34375 5.359375 -8.34375 13.703125q0 4.375 2.375 7.359375q2.390625 2.96875 5.859375 2.96875q3.484375 0 5.765625 -1.390625q2.296875 -1.390625 2.6875 -1.578125q3.375 0.390625 3.375 7.046875q0 6.65625 -6.15625 10.734375q-6.15625 4.0625 -12.90625 4.0625q-6.75 0 -11.625 -2.390625q-4.859375 -2.375 -7.046875 -5.34375q-2.1875 -2.984375 -3.578125 -6.765625q-1.390625 -4.5625 -1.390625 -7.9375q0 -13.90625 8.734375 -22.25q8.75 -8.34375 22.453125 -11.921875q18.078125 -3.578125 18.875 -6.5625q0.59375 -2.1875 0.59375 -7.34375q0 -10.53125 -10.734375 -10.53125q-4.5625 0 -8.140625 2.890625q-3.578125 2.875 -3.578125 7.234375l1.203125 4.78125q-0.40625 3.375 -7.15625 3.96875l-2.1875 0.203125q-5.953125 0 -9.4375 -2.984375q-3.46875 -2.984375 -3.46875 -7.953125q0 -3.171875 2.078125 -7.046875q2.09375 -3.875 5.265625 -6.25q3.171875 -2.390625 9.828125 -4.28125q6.65625 -1.890625 12.8125 -1.890625q6.171875 0 9.546875 0.40625q3.375 0.390625 9.234375 1.890625q5.859375 1.484375 9.734375 5.65625q3.875 4.171875 4.171875 8.84375q0.296875 4.65625 0.296875 13.40625zm21.062988 22.84375l0.390625 -40.125q0 -47.09375 -4.5625 -53.25q-2.1875 -2.78125 -2.1875 -3.875q0 -1.09375 2.671875 -2.578125q2.6875 -1.484375 10.4375 -3.265625q7.75 -1.796875 13.703125 -1.796875q5.96875 0 5.96875 2.78125l-0.40625 2.578125q-2.375 21.453125 -2.375 41.921875q0 20.453125 1.1875 45.6875q1.1875 25.234375 1.1875 37.15625q0 16.078125 -12.421875 27.703125q-12.40625 11.625 -29.5 12.625q-3.375 -0.40625 -3.375 -2.390625q0 -1.390625 0.90625 -2.1875q0.890625 -0.796875 2.078125 -1.984375q1.1875 -1.1875 4.359375 -6.15625q3.1875 -4.96875 5.5625 -11.234375q2.390625 -6.25 4.375 -17.375q2.0 -11.125 2.0 -24.234375zm59.58374 -38.140625q-5.15625 0.203125 -7.453125 0.296875q-2.28125 0.09375 -2.28125 -1.09375q0 -1.1875 1.203125 -2.390625q12.703125 -11.71875 42.90625 -11.71875q10.328125 0 16.28125 1.796875l2.0 0.59375q2.375 0.984375 2.375 2.1875q0 0.984375 -1.390625 1.578125q-5.359375 1.59375 -10.328125 5.078125q-4.96875 3.46875 -4.96875 4.859375l1.1875 1.390625q6.359375 3.578125 9.828125 11.328125q3.484375 7.75 3.890625 13.703125l0.390625 6.15625q0 19.671875 -10.921875 32.390625q-10.921875 12.703125 -29.796875 12.703125q-9.53125 0 -16.484375 -3.375q-6.953125 -3.375 -10.234375 -7.640625q-3.28125 -4.28125 -5.265625 -9.640625q-2.390625 -7.34375 -2.390625 -15.1875q0 -7.859375 2.6875 -15.796875q2.6875 -7.953125 6.15625 -11.71875q3.484375 -3.78125 7.84375 -6.171875q5.5625 -2.96875 8.9375 -2.96875q3.390625 0 3.390625 1.390625l-1.203125 1.984375q-4.359375 5.15625 -6.25 13.5q-1.890625 8.34375 -1.890625 14.8125q0 6.453125 1.578125 12.8125q1.59375 6.34375 3.578125 9.4375q2.0 3.078125 4.578125 4.65625q3.78125 2.390625 7.953125 2.390625q4.171875 0 8.140625 -3.28125q3.96875 -3.28125 5.75 -8.640625q3.578125 -9.9375 3.578125 -20.46875q0 -16.671875 -8.4375 -25.8125q-8.4375 -9.140625 -24.9375 -9.140625zm83.43567 0q-5.15625 0.203125 -7.453125 0.296875q-2.28125 0.09375 -2.28125 -1.09375q0 -1.1875 1.203125 -2.390625q12.703125 -11.71875 42.90625 -11.71875q10.328125 0 16.28125 1.796875l2.0 0.59375q2.375 0.984375 2.375 2.1875q0 0.984375 -1.390625 1.578125q-5.359375 1.59375 -10.328125 5.078125q-4.96875 3.46875 -4.96875 4.859375l1.1875 1.390625q6.359375 3.578125 9.828125 11.328125q3.484375 7.75 3.890625 13.703125l0.390625 6.15625q0 19.671875 -10.921875 32.390625q-10.921875 12.703125 -29.796875 12.703125q-9.53125 0 -16.484375 -3.375q-6.953125 -3.375 -10.234375 -7.640625q-3.28125 -4.28125 -5.265625 -9.640625q-2.390625 -7.34375 -2.390625 -15.1875q0 -7.859375 2.6875 -15.796875q2.6875 -7.953125 6.15625 -11.71875q3.484375 -3.78125 7.84375 -6.171875q5.5625 -2.96875 8.9375 -2.96875q3.390625 0 3.390625 1.390625l-1.203125 1.984375q-4.359375 5.15625 -6.25 13.5q-1.890625 8.34375 -1.890625 14.8125q0 6.453125 1.578125 12.8125q1.59375 6.34375 3.578125 9.4375q2.0 3.078125 4.578125 4.65625q3.78125 2.390625 7.953125 2.390625q4.171875 0 8.140625 -3.28125q3.96875 -3.28125 5.75 -8.640625q3.578125 -9.9375 3.578125 -20.46875q0 -16.671875 -8.4375 -25.8125q-8.4375 -9.140625 -24.9375 -9.140625zm63.37091 76.28125q3.578125 -21.453125 3.578125 -51.453125q0 -30.0 -1.78125 -38.9375q0 -2.578125 5.953125 -2.578125q9.140625 0 12.125 6.953125q0.203125 0.59375 0.984375 0.59375q0.796875 0 1.203125 -0.390625q6.15625 -6.359375 19.0625 -6.359375q12.921875 0 20.46875 6.5625q7.546875 6.546875 7.546875 19.0625q0 7.546875 -1.296875 21.453125q-1.28125 13.90625 -1.28125 20.65625q0 16.09375 5.359375 23.25q0.796875 0.984375 0.796875 1.984375q0 2.578125 -5.5625 2.578125q-24.640625 0 -24.640625 -21.84375q0 -8.34375 3.765625 -23.234375q3.78125 -14.90625 3.78125 -22.65625q0 -15.890625 -13.109375 -15.890625q-6.359375 0 -9.640625 3.78125q-3.265625 3.765625 -3.671875 8.640625q-0.390625 4.859375 -0.390625 18.359375q0 20.65625 1.390625 35.953125l0.390625 4.375q0 5.5625 -7.25 8.640625q-7.25 3.078125 -12.515625 3.078125q-5.265625 0 -5.265625 -2.578125zm99.732605 -107.671875l-4.765625 -0.203125q-5.359375 0 -6.953125 2.59375q-0.40625 0.59375 -1.0 0.59375q-2.578125 0 -2.578125 -8.84375q0 -8.84375 2.671875 -11.21875q2.6875 -2.390625 9.34375 -2.390625q6.65625 0 9.03125 2.28125q2.390625 2.28125 2.390625 7.65625q0 5.359375 -1.796875 7.453125q-1.78125 2.078125 -6.34375 2.078125zm-15.890625 100.328125l2.1875 -46.296875q0 -16.484375 -3.78125 -22.4375q-1.1875 -2.0 -2.78125 -2.984375q-1.1875 -0.40625 -1.1875 -1.59375q0 -3.578125 10.125 -6.953125q10.140625 -3.375 14.796875 -3.375q4.671875 0 4.875 2.390625q0 3.96875 -1.09375 22.546875q-1.09375 18.5625 -1.09375 39.03125q0 20.453125 2.390625 25.421875q0.59375 1.0 0.59375 1.984375q0 2.59375 -7.546875 2.59375q-7.546875 0 -15.5 -3.984375q-1.984375 -0.984375 -1.984375 -6.34375zm56.01471 -44.5l0.203125 4.953125q0 1.203125 1.59375 1.203125q6.359375 -0.59375 11.125 -3.28125q4.765625 -2.6875 7.140625 -6.0625q4.78125 -7.34375 5.171875 -12.703125l0.203125 -2.390625q0 -10.734375 -8.546875 -10.734375q-6.359375 0 -10.328125 5.5625q-6.5625 8.75 -6.5625 23.453125zm43.3125 26.421875q0 7.546875 -3.078125 13.203125q-3.078125 5.65625 -6.953125 8.34375q-3.875 2.6875 -9.046875 4.265625q-6.546875 2.0 -12.515625 2.0q-16.6875 0 -24.640625 -12.515625q-7.9375 -12.515625 -7.9375 -31.890625q0 -19.375 9.828125 -34.46875q9.84375 -15.09375 29.515625 -15.09375q17.875 0 24.234375 12.515625q2.578125 4.765625 2.578125 9.046875q0 4.265625 -0.40625 6.75q-0.390625 2.484375 -2.78125 7.453125q-2.375 4.953125 -6.359375 8.9375q-3.96875 3.96875 -12.515625 7.546875q-8.53125 3.5625 -20.046875 4.765625q-1.59375 0 -1.59375 1.390625q0 1.78125 1.28125 5.265625q1.296875 3.46875 2.890625 5.859375q4.375 5.5625 12.90625 5.5625q8.546875 0 14.5 -5.5625q3.1875 -2.984375 5.171875 -7.359375q0.796875 -1.578125 2.078125 -1.578125q1.296875 0 2.09375 2.1875q0.796875 2.171875 0.796875 3.375z" fill-rule="nonzero"/></g></svg>